<?xml version="1.0" encoding="UTF-8" standalone="no"?>
<!-- Created with Inkscape (http://www.inkscape.org/) -->

<svg
   width="200mm"
   height="210mm"
   viewBox="0 0 200 210"
   version="1.1"
   id="svg27722"
   xmlns="http://www.w3.org/2000/svg"
   xmlns:svg="http://www.w3.org/2000/svg">
  <defs
     id="defs27719" />
  <g
     id="layer1"
     transform="translate(-12.004243,-15.813556)">
    <g
       id="g27141"
       transform="matrix(2,0,0,1.9090909,2276.2042,-860.38946)">
      <g
         id="g27127"
         transform="matrix(0.61841306,0,0,0.75834728,-518.79936,195.13672)"
         style="fill:#81ce89;fill-opacity:1">
        <path
           style="fill:#81ce89;fill-opacity:1;stroke-width:0.301737"
           d="m -915.44695,492.78502 c -4.8771,-0.40215 -11.0141,-1.83474 -15.0351,-3.50978 -2.973,-1.23847 -39.2591,-18.8547 -41.8009,-20.29347 -3.4045,-1.9272 -9.3404,-6.94357 -11.6068,-9.80875 -3.4572,-4.37047 -5.5913,-8.52747 -7.0023,-13.63849 -0.6551,-2.37334 -0.6896,-3.40284 -0.8007,-23.99619 -0.097,-18.02856 -0.036,-21.96225 0.3771,-24.26643 1.8468,-10.29862 9.0977,-19.84673 19.5284,-25.71519 2.9408,-1.65453 37.4283,-18.42112 40.7769,-19.82428 5.5763,-2.33663 11.56,-3.58208 18.2562,-3.79991 7.397,-0.24064 13.6936,0.73514 20.2686,3.14109 2.7422,1.00345 37.5367,17.75868 42.4661,20.44955 1.6418,0.89618 4.3273,2.79558 6.4635,4.57151 6.781,5.63735 10.5911,11.54183 12.7872,19.81665 0.7299,2.75032 0.7389,3.04342 0.74,24.27489 0,19.50804 -0.054,21.73247 -0.5914,24.10845 -1.2964,5.72816 -4.3541,11.61032 -8.3279,16.0209 -2.4322,2.69936 -7.3644,6.74937 -10.4105,8.54849 -2.5716,1.51875 -37.5733,18.503 -41.6132,20.19229 -7.1675,2.99724 -16.3605,4.39776 -24.4752,3.72867 z m 12.8873,-29.03635 c 0,-6.07785 -0.037,-5.95327 1.822,-5.95327 0.4274,0 2.5342,-0.37638 4.6818,-0.8364 11.7833,-2.52378 19.8296,-8.94445 21.9697,-17.53073 1.261,-5.05891 0.447,-11.05049 -2.0903,-15.38983 -2.665,-4.55725 -8.6334,-8.1243 -16.5416,-9.88613 -3.8564,-0.85914 -5.963,-1.10474 -16.6157,-1.93719 -9.2187,-0.72039 -11.7179,-1.17171 -14.428,-2.60536 -0.9417,-0.49824 -1.905,-1.3321 -2.4782,-2.1452 -0.861,-1.22146 -0.9377,-1.55521 -0.9377,-4.08537 0,-2.53499 0.079,-2.87241 0.9736,-4.22074 1.6656,-2.50693 4.4525,-4.07767 8.6889,-4.89709 2.9448,-0.56961 10.1383,-0.56396 14.4598,0.0109 4.4094,0.58703 6.862,1.29525 10.0939,2.91496 3.264,1.63568 3.7132,1.7657 4.6808,1.35531 0.4159,-0.17634 2.6518,-1.88606 4.9688,-3.79938 5.7861,-4.77816 5.8529,-5.26136 1.1043,-7.9984 -5.1349,-2.95988 -10.2378,-4.53231 -17.2571,-5.3178 l -3.095,-0.34633 v -4.76732 -4.76732 l -8.1784,0.0737 -8.1786,0.0737 -0.09,4.83788 -0.09,4.83788 -2.3884,0.34085 c -5.7484,0.82043 -12.0633,3.5661 -16.2631,7.07107 -5.5343,4.61885 -7.6564,9.36171 -7.3325,16.38862 0.1978,4.29044 0.7055,6.14561 2.5356,9.26337 2.3256,3.96215 7.0984,7.02597 13.744,8.82279 4.7576,1.2863 5.3988,1.37225 17.1958,2.3042 14.2854,1.12852 16.7281,1.83405 18.8551,5.44575 0.8204,1.39306 0.9264,1.87014 0.9015,4.05837 -0.034,2.90543 -0.5077,3.99706 -2.5343,5.83034 -3.5956,3.25248 -11.631,4.90284 -20.6974,4.25096 -8.7453,-0.62878 -12.776,-1.79478 -18.3163,-5.29842 -4.1814,-2.64411 -4.0731,-2.66657 -9.6975,2.01346 -4.4923,3.73798 -5.2906,4.68302 -4.9399,5.84805 0.3758,1.24816 7.4845,5.4881 12.5329,7.47504 3.2036,1.26089 8.8915,2.42663 13.7758,2.82337 l 2.4783,0.2013 0.084,5.23498 c 0.047,2.87925 0.1536,5.38997 0.2375,5.57939 0.1162,0.26271 2.0753,0.3444 8.2586,0.3444 h 8.1062 v -5.61879 z"
           id="path27123" />
        <path
           style="fill:#81ce89;fill-opacity:1;stroke:#22C55E;stroke-width:58.5249;stroke-dasharray:none;stroke-opacity:1"
           d="m -4085.7844,1600.1419 v -19.9255 l -13.6985,-2.1176 c -28.92,-4.4707 -58.2782,-13.7761 -76.7112,-24.3145 -10.5478,-6.0304 -19.1778,-12.2781 -19.1778,-13.8839 0,-4.5937 32.1865,-33.0749 37.3608,-33.0597 2.5562,0.01 10.1197,3.3498 16.8077,7.4273 26.9088,16.4056 88.809,23.5242 122.71,14.1118 30.293,-8.4106 43.6216,-35.1653 27.6402,-55.4823 -8.7564,-11.1319 -12.3116,-11.9777 -79.585,-18.933 -85.8443,-8.8753 -113.9749,-27.9717 -113.9749,-77.3717 0,-39.9014 30.7638,-71.3386 80.1815,-81.9368 l 18.4472,-3.9562 v -17.9619 -17.9619 h 29.2233 29.2233 v 17.5226 17.5226 l 24.0615,4.1216 c 26.594,4.5553 63.6084,20.8893 63.6084,28.0694 0,3.96 -19.1214,21.4705 -31.3953,28.7504 -2.1992,1.3044 -12.884,-1.1752 -23.744,-5.5101 -26.2375,-10.4731 -90.2247,-11.6991 -107.8141,-2.0656 -14.3461,7.8572 -21.6775,24.3532 -17.0256,38.3088 5.5577,16.6733 20.3536,22.3997 68.6888,26.5844 54.5038,4.7187 85.1286,12.4496 104.2829,26.3249 34.5226,25.008 38.0926,74.2931 7.7268,106.6703 -12.796,13.6436 -49.0117,30.8729 -71.0381,33.7958 l -17.3513,2.3026 v 21.4468 21.4469 h -29.2233 -29.2233 z"
           id="path27125"
           transform="matrix(0.26458333,0,0,0.26458333,162.66941,40.066942)" />
      </g>
      <g
         id="g27133"
         transform="translate(71.024338,-15.018474)"
         style="fill:#22C55E;fill-opacity:1;stroke-width:10.4;stroke-dasharray:none">
        <path
           style="fill:#22C55E;fill-opacity:1;stroke-width:10.4;stroke-dasharray:none"
           d="m -1155.5616,575.30741 c -2.6035,-0.25744 -5.8793,-1.17458 -8.0257,-2.24693 -1.587,-0.79286 -20.9565,-12.07061 -22.3132,-12.99171 -1.8173,-1.23378 -4.9859,-4.44521 -6.1957,-6.27948 -1.8454,-2.79794 -2.9847,-5.45922 -3.7378,-8.73125 -0.3498,-1.51939 -0.3681,-2.17847 -0.4274,-15.36216 -0.052,-11.54173 -0.019,-14.06004 0.2013,-15.53516 0.9858,-6.59309 4.8563,-12.70571 10.4242,-16.46265 1.5697,-1.05922 19.979,-11.79305 21.7665,-12.69134 2.9767,-1.49589 6.1707,-2.29322 9.7451,-2.43267 3.9486,-0.15406 7.3096,0.47063 10.8193,2.0109 1.4638,0.6424 20.037,11.36896 22.6684,13.09163 0.8763,0.57373 2.3098,1.78971 3.4501,2.92664 3.6198,3.60899 5.6535,7.38899 6.8258,12.68646 0.3897,1.76073 0.3944,1.94837 0.395,15.54057 0,12.48889 -0.029,13.91295 -0.3156,15.43403 -0.6921,3.66712 -2.3242,7.43283 -4.4455,10.25645 -1.2982,1.72811 -3.931,4.32089 -5.5571,5.47267 -1.3726,0.97229 -20.0565,11.84547 -22.2129,12.92694 -3.826,1.91881 -8.7333,2.81541 -13.0648,2.38706 z m 6.8791,-18.58883 c 0,-3.89099 -0.02,-3.81123 0.9727,-3.81123 0.228,0 1.3526,-0.24096 2.4991,-0.53546 6.2898,-1.61569 10.585,-5.72616 11.7273,-11.22303 0.6731,-3.23866 0.2387,-7.07443 -1.1158,-9.85244 -1.4225,-2.9175 -4.6085,-5.2011 -8.8299,-6.32899 -2.0585,-0.55002 -3.1829,-0.70726 -8.8693,-1.24018 -4.921,-0.46119 -6.2551,-0.75013 -7.7016,-1.66793 -0.5027,-0.31897 -1.017,-0.8528 -1.3229,-1.37334 -0.4597,-0.78197 -0.5005,-0.99563 -0.5005,-2.61541 0,-1.62289 0.042,-1.8389 0.5197,-2.70209 0.889,-1.60492 2.3767,-2.61048 4.6381,-3.13508 1.5719,-0.36465 5.4118,-0.36104 7.7185,0.007 2.3538,0.37581 3.6629,0.82922 5.3882,1.86613 1.7423,1.04716 1.982,1.13039 2.4986,0.86766 0.2219,-0.11288 1.4154,-1.20743 2.6522,-2.43233 3.0887,-3.05894 3.1243,-3.36827 0.5896,-5.12051 -2.7411,-1.89489 -5.4649,-2.90155 -9.2118,-3.40441 l -1.6522,-0.22172 v -3.052 -3.052 l -4.3656,0.0472 -4.3656,0.0472 -0.048,3.09717 -0.048,3.09717 -1.2749,0.21821 c -3.0686,0.52523 -6.4395,2.28299 -8.6813,4.52685 -2.9542,2.95695 -4.0869,5.99328 -3.914,10.49186 0.1055,2.7467 0.3766,3.93437 1.3534,5.93032 1.2415,2.53653 3.7892,4.49797 7.3366,5.64827 2.5395,0.82348 2.8819,0.8785 9.1791,1.47514 7.6254,0.72246 8.9293,1.17413 10.0647,3.48632 0.438,0.89183 0.4945,1.19725 0.4812,2.59814 -0.018,1.86003 -0.2709,2.55888 -1.3528,3.73253 -1.9193,2.08221 -6.2085,3.13876 -11.0482,2.72143 -4.6681,-0.40255 -6.8197,-1.149 -9.7772,-3.392 -2.2319,-1.69274 -2.1741,-1.70712 -5.1764,1.289 -2.398,2.39302 -2.8241,2.99802 -2.6369,3.74387 0.2005,0.79906 3.9952,3.51344 6.69,4.78546 1.71,0.80721 4.7462,1.5535 7.3534,1.8075 l 1.3229,0.12887 0.045,3.35139 c 0.025,1.84327 0.082,3.45061 0.1268,3.57188 0.062,0.16818 1.1078,0.22047 4.4085,0.22047 h 4.327 v -3.59709 z"
           id="path27129" />
        <path
           style="fill:#22C55E;fill-opacity:1;stroke:#000000;stroke-width:39.3071;stroke-dasharray:none;stroke-opacity:0"
           d="m -4988.583,1951.7491 v -14.0351 h -5.7717 c -17.6181,0 -52.1229,-16.8765 -52.1229,-25.4937 0,-2.6296 17.3842,-20.1227 19.9875,-20.1127 1.0683,0 5.4949,2.3892 9.837,5.3001 10.9638,7.3499 23.6917,10.6959 40.869,10.7438 18.84,0.052 28.5068,-2.6203 35.7792,-9.8928 5.0325,-5.0325 5.8077,-6.984 5.8077,-14.6204 0,-6.8736 -0.9787,-9.976 -4.4481,-14.099 -5.0897,-6.0488 -11.5285,-7.7056 -41.971,-10.7996 -31.2106,-3.1721 -46.2052,-10.3383 -55.335,-26.4454 -3.7841,-6.6761 -4.3842,-9.9044 -4.3733,-23.5273 0.01,-12.961 0.7147,-17.1073 3.9326,-23.1468 7.5253,-14.1239 24.4792,-26.7395 40.3457,-30.0217 l 6.5861,-1.3624 0.5188,-11.7695 0.5187,-11.7695 h 15.7093 15.7093 v 11.1047 11.1047 l 13.6591,2.9352 c 14.6231,3.1423 33.7092,13.3831 33.7092,18.0868 0,2.8343 -16.7036,19.9263 -19.4735,19.9263 -0.9326,0 -5.8142,-2.1009 -10.8479,-4.6687 -7.6044,-3.8791 -12.1509,-4.8062 -26.8838,-5.482 -20.6224,-0.9458 -28.3925,0.9828 -34.8424,8.648 -3.5397,4.2066 -4.4434,7.1841 -4.4434,14.6392 0,8.2279 0.6308,9.8893 5.2211,13.7518 6.1499,5.1748 7.8855,5.586 38.0288,9.009 34.5316,3.9214 50.1364,11.2937 58.9889,27.8687 5.6701,10.6165 5.65,37.3259 -0.036,47.977 -8.1242,15.2179 -23.6978,26.0839 -43.8694,30.6086 l -9.2105,2.066 v 13.7559 13.7558 h -15.7894 -15.7895 z"
           id="path27131"
           transform="matrix(0.26458333,0,0,0.26458333,162.66941,40.066942)" />
      </g>
      <path
         style="fill:#c6c6c6;fill-opacity:1;stroke:#c6c6c6;stroke-width:0.8;stroke-dasharray:none;stroke-opacity:1"
         d="m -1086.2987,541.59454 -0.1355,-3.56764 -3.3971,-0.57108 c -1.8685,-0.31409 -4.4795,-1.10331 -5.8023,-1.75379 -2.9217,-1.43679 -5.8865,-3.82484 -5.8865,-4.74149 0,-0.97526 3.6621,-4.79915 4.8916,-5.10773 0.7222,-0.18127 1.6615,0.18375 3.0373,1.18039 2.6923,1.95027 6.1266,2.86739 10.7862,2.88038 4.7587,0.0132 7.3902,-0.72715 9.4336,-2.65424 1.3649,-1.28733 1.5588,-1.75882 1.5588,-3.78976 0,-2.59165 -1.1463,-4.51856 -3.1389,-5.27617 -0.6383,-0.24262 -4.0051,-0.75591 -7.482,-1.14061 -9.5598,-1.05778 -12.1884,-1.98787 -15.0429,-5.32273 -2.4761,-2.89275 -3.3471,-7.90745 -2.133,-12.28066 1.2192,-4.39148 5.6289,-8.40828 10.6222,-9.67558 l 2.553,-0.64796 0.1372,-3.0819 0.1373,-3.08189 h 4.1564 4.1564 v 2.97635 2.97638 l 1.9728,0.30485 c 4.6419,0.71729 10.5601,3.58389 10.5601,5.11498 0,0.88048 -3.4935,4.74136 -4.6111,5.09609 -0.4467,0.14176 -2.0463,-0.3115 -3.5546,-1.00719 -2.2273,-1.0273 -3.5837,-1.30019 -7.2197,-1.45254 -5.2223,-0.21881 -7.2939,0.31335 -8.9689,2.30397 -1.6373,1.94579 -1.6845,5.79204 -0.09,7.29046 1.421,1.33495 2.8466,1.71111 8.9379,2.35831 9.2186,0.97948 12.7552,2.24369 15.6114,5.58048 1.995,2.33072 2.6796,4.55473 2.6796,8.70519 0,2.68192 -0.2436,3.72462 -1.4195,6.07793 -2.0787,4.15975 -5.1226,6.3971 -10.8813,7.99793 l -2.7851,0.77422 -0.1356,3.55135 -0.1355,3.55134 h -4.1386 -4.1386 z"
         id="path27135" />
      <g
         id="g27139"
         transform="translate(-1107.0066,318.79687)"
         style="fill:#ffffff;fill-opacity:1">
        <path
           style="fill:#ffffff;fill-opacity:1;stroke-width:0.0961695"
           d="m 19.247372,229.70737 c 0,-3.38994 -0.02621,-4.3173 -0.121854,-4.31803 -0.859872,-0.007 -4.580467,-0.53881 -6.360291,-0.91008 -2.488045,-0.519 -3.6168195,-0.89644 -5.4099115,-1.80897 -2.484337,-1.26432 -6.85540899,-4.31116 -7.28632199,-5.07892 -0.272573,-0.48565 -0.284688,-1.10022 -0.03099,-1.57444 0.232569,-0.43479 5.78522399,-5.82645 6.21589499,-6.03568 0.354063,-0.172 0.96472,-0.19745 1.346635,-0.0562 0.141833,0.0525 0.726967,0.45489 1.300294,0.89423 2.1891195,1.6775 4.1969455,2.83796 5.8232605,3.36567 1.084364,0.35186 3.859836,0.90464 5.595545,1.11445 1.8789,0.22713 5.872831,0.22772 7.456895,7.3e-4 3.789706,-0.54214 6.71702,-1.80441 8.150116,-3.51437 1.059583,-1.26428 1.488968,-2.56033 1.481199,-4.47087 -0.0086,-2.10677 -0.487327,-3.34475 -1.781219,-4.60593 -0.843586,-0.82228 -1.610014,-1.24898 -3.025039,-1.68415 -1.434374,-0.44115 -2.374452,-0.56173 -8.285444,-1.06273 -3.029064,-0.25673 -5.989891,-0.53592 -6.579621,-0.62041 -6.455373,-0.92491 -11.2777865,-3.38606 -13.6485965,-6.96567 -1.426884,-2.15439 -2.178179,-4.76837 -2.346682,-8.16478 -0.247577,-4.99024 1.409299,-9.29587 4.876941,-12.6734 1.409717,-1.37308 2.201955,-1.97889 3.8302525,-2.92891 2.076275,-1.21138 4.510336,-2.09759 7.219856,-2.62864 l 1.579108,-0.30949 v -3.77583 -3.77598 h 5.361169 5.36117 v 3.69857 3.69857 l 0.219322,0.0427 c 0.120628,0.0234 0.811491,0.11212 1.535242,0.19703 1.529464,0.17942 4.260204,0.69955 5.471826,1.04224 2.242135,0.63414 4.991356,2.05416 7.568132,3.90905 0.994856,0.71615 1.241545,1.25792 0.986257,2.16595 -0.0888,0.31587 -0.582637,0.845 -2.944122,3.15454 -3.054359,2.98719 -3.277162,3.15377 -4.033589,3.01564 -0.202441,-0.037 -0.8294,-0.35001 -1.39324,-0.69563 -1.346018,-0.82509 -3.009208,-1.64378 -3.962893,-1.9507 -3.416881,-1.09962 -8.959168,-1.54602 -12.495282,-1.00643 -4.309819,0.65765 -6.984181,2.96844 -7.428054,6.41821 -0.248165,1.92877 0.274871,3.8799 1.361379,5.07846 0.79743,0.87967 2.304116,1.66273 3.978915,2.06794 1.282121,0.31019 2.477553,0.45808 6.116106,0.75664 5.134622,0.4213 6.575399,0.56014 8.040569,0.77488 5.267534,0.77196 9.291343,2.45253 12.038237,5.02785 2.959542,2.77469 4.338896,6.40275 4.338896,11.41246 0,4.77039 -1.513405,8.61126 -4.663852,11.83643 -3.27789,3.35563 -7.778453,5.4351 -13.637244,6.3011 l -1.096605,0.16208 v 4.39882 4.39883 h -5.36117 -5.361169 z"
           id="path27137" />
      </g>
    </g>
  </g>
</svg>
