<?xml version="1.0" encoding="UTF-8" standalone="no"?>
<!-- Created with Inkscape (http://www.inkscape.org/) -->

<svg
   width="271.74057mm"
   height="165.24106mm"
   viewBox="0 0 271.74057 165.24106"
   version="1.1"
   id="svg31370"
   inkscape:version="1.2.1 (9c6d41e4, 2022-07-14)"
   sodipodi:docname="vertical_darl.svg"
   xmlns:inkscape="http://www.inkscape.org/namespaces/inkscape"
   xmlns:sodipodi="http://sodipodi.sourceforge.net/DTD/sodipodi-0.dtd"
   xmlns="http://www.w3.org/2000/svg"
   xmlns:svg="http://www.w3.org/2000/svg">
  <sodipodi:namedview
     id="namedview31372"
     pagecolor="#ffffff"
     bordercolor="#666666"
     borderopacity="1.0"
     inkscape:showpageshadow="2"
     inkscape:pageopacity="0.0"
     inkscape:pagecheckerboard="0"
     inkscape:deskcolor="#d1d1d1"
     inkscape:document-units="mm"
     showgrid="false"
     inkscape:zoom="0.2102413"
     inkscape:cx="513.69545"
     inkscape:cy="313.925"
     inkscape:window-width="729"
     inkscape:window-height="480"
     inkscape:window-x="0"
     inkscape:window-y="25"
     inkscape:window-maximized="0"
     inkscape:current-layer="layer1" />
  <defs
     id="defs31367" />
  <g
     inkscape:label="Layer 1"
     inkscape:groupmode="layer"
     id="layer1"
     transform="translate(31.416895,-65.879465)">
    <g
       id="g27215"
       transform="translate(512.88591,-311.2308)">
      <g
         id="g27573"
         transform="translate(10.020812)">
        <g
           id="g27211"
           transform="translate(663.64664,-81.853222)">
          <g
             id="g27197"
             transform="matrix(0.61841306,0,0,0.75834728,-518.79936,195.13672)"
             style="fill:#81ce89;fill-opacity:1">
            <path
               style="fill:#81ce89;fill-opacity:1;stroke-width:0.301737"
               d="m -915.44695,492.78502 c -4.8771,-0.40215 -11.0141,-1.83474 -15.0351,-3.50978 -2.973,-1.23847 -39.2591,-18.8547 -41.8009,-20.29347 -3.4045,-1.9272 -9.3404,-6.94357 -11.6068,-9.80875 -3.4572,-4.37047 -5.5913,-8.52747 -7.0023,-13.63849 -0.6551,-2.37334 -0.6896,-3.40284 -0.8007,-23.99619 -0.097,-18.02856 -0.036,-21.96225 0.3771,-24.26643 1.8468,-10.29862 9.0977,-19.84673 19.5284,-25.71519 2.9408,-1.65453 37.4283,-18.42112 40.7769,-19.82428 5.5763,-2.33663 11.56,-3.58208 18.2562,-3.79991 7.397,-0.24064 13.6936,0.73514 20.2686,3.14109 2.7422,1.00345 37.5367,17.75868 42.4661,20.44955 1.6418,0.89618 4.3273,2.79558 6.4635,4.57151 6.781,5.63735 10.5911,11.54183 12.7872,19.81665 0.7299,2.75032 0.7389,3.04342 0.74,24.27489 0,19.50804 -0.054,21.73247 -0.5914,24.10845 -1.2964,5.72816 -4.3541,11.61032 -8.3279,16.0209 -2.4322,2.69936 -7.3644,6.74937 -10.4105,8.54849 -2.5716,1.51875 -37.5733,18.503 -41.6132,20.19229 -7.1675,2.99724 -16.3605,4.39776 -24.4752,3.72867 z m 12.8873,-29.03635 c 0,-6.07785 -0.037,-5.95327 1.822,-5.95327 0.4274,0 2.5342,-0.37638 4.6818,-0.8364 11.7833,-2.52378 19.8296,-8.94445 21.9697,-17.53073 1.261,-5.05891 0.447,-11.05049 -2.0903,-15.38983 -2.665,-4.55725 -8.6334,-8.1243 -16.5416,-9.88613 -3.8564,-0.85914 -5.963,-1.10474 -16.6157,-1.93719 -9.2187,-0.72039 -11.7179,-1.17171 -14.428,-2.60536 -0.9417,-0.49824 -1.905,-1.3321 -2.4782,-2.1452 -0.861,-1.22146 -0.9377,-1.55521 -0.9377,-4.08537 0,-2.53499 0.079,-2.87241 0.9736,-4.22074 1.6656,-2.50693 4.4525,-4.07767 8.6889,-4.89709 2.9448,-0.56961 10.1383,-0.56396 14.4598,0.0109 4.4094,0.58703 6.862,1.29525 10.0939,2.91496 3.264,1.63568 3.7132,1.7657 4.6808,1.35531 0.4159,-0.17634 2.6518,-1.88606 4.9688,-3.79938 5.7861,-4.77816 5.8529,-5.26136 1.1043,-7.9984 -5.1349,-2.95988 -10.2378,-4.53231 -17.2571,-5.3178 l -3.095,-0.34633 v -4.76732 -4.76732 l -8.1784,0.0737 -8.1786,0.0737 -0.09,4.83788 -0.09,4.83788 -2.3884,0.34085 c -5.7484,0.82043 -12.0633,3.5661 -16.2631,7.07107 -5.5343,4.61885 -7.6564,9.36171 -7.3325,16.38862 0.1978,4.29044 0.7055,6.14561 2.5356,9.26337 2.3256,3.96215 7.0984,7.02597 13.744,8.82279 4.7576,1.2863 5.3988,1.37225 17.1958,2.3042 14.2854,1.12852 16.7281,1.83405 18.8551,5.44575 0.8204,1.39306 0.9264,1.87014 0.9015,4.05837 -0.034,2.90543 -0.5077,3.99706 -2.5343,5.83034 -3.5956,3.25248 -11.631,4.90284 -20.6974,4.25096 -8.7453,-0.62878 -12.776,-1.79478 -18.3163,-5.29842 -4.1814,-2.64411 -4.0731,-2.66657 -9.6975,2.01346 -4.4923,3.73798 -5.2906,4.68302 -4.9399,5.84805 0.3758,1.24816 7.4845,5.4881 12.5329,7.47504 3.2036,1.26089 8.8915,2.42663 13.7758,2.82337 l 2.4783,0.2013 0.084,5.23498 c 0.047,2.87925 0.1536,5.38997 0.2375,5.57939 0.1162,0.26271 2.0753,0.3444 8.2586,0.3444 h 8.1062 v -5.61879 z"
               id="path27193" />
            <path
               style="fill:#81ce89;fill-opacity:1;stroke:#22C55E;stroke-width:58.5249;stroke-dasharray:none;stroke-opacity:1"
               d="m -4085.7844,1600.1419 v -19.9255 l -13.6985,-2.1176 c -28.92,-4.4707 -58.2782,-13.7761 -76.7112,-24.3145 -10.5478,-6.0304 -19.1778,-12.2781 -19.1778,-13.8839 0,-4.5937 32.1865,-33.0749 37.3608,-33.0597 2.5562,0.01 10.1197,3.3498 16.8077,7.4273 26.9088,16.4056 88.809,23.5242 122.71,14.1118 30.293,-8.4106 43.6216,-35.1653 27.6402,-55.4823 -8.7564,-11.1319 -12.3116,-11.9777 -79.585,-18.933 -85.8443,-8.8753 -113.9749,-27.9717 -113.9749,-77.3717 0,-39.9014 30.7638,-71.3386 80.1815,-81.9368 l 18.4472,-3.9562 v -17.9619 -17.9619 h 29.2233 29.2233 v 17.5226 17.5226 l 24.0615,4.1216 c 26.594,4.5553 63.6084,20.8893 63.6084,28.0694 0,3.96 -19.1214,21.4705 -31.3953,28.7504 -2.1992,1.3044 -12.884,-1.1752 -23.744,-5.5101 -26.2375,-10.4731 -90.2247,-11.6991 -107.8141,-2.0656 -14.3461,7.8572 -21.6775,24.3532 -17.0256,38.3088 5.5577,16.6733 20.3536,22.3997 68.6888,26.5844 54.5038,4.7187 85.1286,12.4496 104.2829,26.3249 34.5226,25.008 38.0926,74.2931 7.7268,106.6703 -12.796,13.6436 -49.0117,30.8729 -71.0381,33.7958 l -17.3513,2.3026 v 21.4468 21.4469 h -29.2233 -29.2233 z"
               id="path27195"
               transform="matrix(0.26458333,0,0,0.26458333,162.66941,40.066942)" />
          </g>
          <g
             id="g27203"
             transform="translate(71.024338,-15.018474)"
             style="fill:#22C55E;fill-opacity:1;stroke-width:10.4;stroke-dasharray:none">
            <path
               style="fill:#22C55E;fill-opacity:1;stroke-width:10.4;stroke-dasharray:none"
               d="m -1155.5616,575.30741 c -2.6035,-0.25744 -5.8793,-1.17458 -8.0257,-2.24693 -1.587,-0.79286 -20.9565,-12.07061 -22.3132,-12.99171 -1.8173,-1.23378 -4.9859,-4.44521 -6.1957,-6.27948 -1.8454,-2.79794 -2.9847,-5.45922 -3.7378,-8.73125 -0.3498,-1.51939 -0.3681,-2.17847 -0.4274,-15.36216 -0.052,-11.54173 -0.019,-14.06004 0.2013,-15.53516 0.9858,-6.59309 4.8563,-12.70571 10.4242,-16.46265 1.5697,-1.05922 19.979,-11.79305 21.7665,-12.69134 2.9767,-1.49589 6.1707,-2.29322 9.7451,-2.43267 3.9486,-0.15406 7.3096,0.47063 10.8193,2.0109 1.4638,0.6424 20.037,11.36896 22.6684,13.09163 0.8763,0.57373 2.3098,1.78971 3.4501,2.92664 3.6198,3.60899 5.6535,7.38899 6.8258,12.68646 0.3897,1.76073 0.3944,1.94837 0.395,15.54057 0,12.48889 -0.029,13.91295 -0.3156,15.43403 -0.6921,3.66712 -2.3242,7.43283 -4.4455,10.25645 -1.2982,1.72811 -3.931,4.32089 -5.5571,5.47267 -1.3726,0.97229 -20.0565,11.84547 -22.2129,12.92694 -3.826,1.91881 -8.7333,2.81541 -13.0648,2.38706 z m 6.8791,-18.58883 c 0,-3.89099 -0.02,-3.81123 0.9727,-3.81123 0.228,0 1.3526,-0.24096 2.4991,-0.53546 6.2898,-1.61569 10.585,-5.72616 11.7273,-11.22303 0.6731,-3.23866 0.2387,-7.07443 -1.1158,-9.85244 -1.4225,-2.9175 -4.6085,-5.2011 -8.8299,-6.32899 -2.0585,-0.55002 -3.1829,-0.70726 -8.8693,-1.24018 -4.921,-0.46119 -6.2551,-0.75013 -7.7016,-1.66793 -0.5027,-0.31897 -1.017,-0.8528 -1.3229,-1.37334 -0.4597,-0.78197 -0.5005,-0.99563 -0.5005,-2.61541 0,-1.62289 0.042,-1.8389 0.5197,-2.70209 0.889,-1.60492 2.3767,-2.61048 4.6381,-3.13508 1.5719,-0.36465 5.4118,-0.36104 7.7185,0.007 2.3538,0.37581 3.6629,0.82922 5.3882,1.86613 1.7423,1.04716 1.982,1.13039 2.4986,0.86766 0.2219,-0.11288 1.4154,-1.20743 2.6522,-2.43233 3.0887,-3.05894 3.1243,-3.36827 0.5896,-5.12051 -2.7411,-1.89489 -5.4649,-2.90155 -9.2118,-3.40441 l -1.6522,-0.22172 v -3.052 -3.052 l -4.3656,0.0472 -4.3656,0.0472 -0.048,3.09717 -0.048,3.09717 -1.2749,0.21821 c -3.0686,0.52523 -6.4395,2.28299 -8.6813,4.52685 -2.9542,2.95695 -4.0869,5.99328 -3.914,10.49186 0.1055,2.7467 0.3766,3.93437 1.3534,5.93032 1.2415,2.53653 3.7892,4.49797 7.3366,5.64827 2.5395,0.82348 2.8819,0.8785 9.1791,1.47514 7.6254,0.72246 8.9293,1.17413 10.0647,3.48632 0.438,0.89183 0.4945,1.19725 0.4812,2.59814 -0.018,1.86003 -0.2709,2.55888 -1.3528,3.73253 -1.9193,2.08221 -6.2085,3.13876 -11.0482,2.72143 -4.6681,-0.40255 -6.8197,-1.149 -9.7772,-3.392 -2.2319,-1.69274 -2.1741,-1.70712 -5.1764,1.289 -2.398,2.39302 -2.8241,2.99802 -2.6369,3.74387 0.2005,0.79906 3.9952,3.51344 6.69,4.78546 1.71,0.80721 4.7462,1.5535 7.3534,1.8075 l 1.3229,0.12887 0.045,3.35139 c 0.025,1.84327 0.082,3.45061 0.1268,3.57188 0.062,0.16818 1.1078,0.22047 4.4085,0.22047 h 4.327 v -3.59709 z"
               id="path27199" />
            <path
               style="fill:#22C55E;fill-opacity:1;stroke:#000000;stroke-width:39.3071;stroke-dasharray:none;stroke-opacity:0"
               d="m -4988.583,1951.7491 v -14.0351 h -5.7717 c -17.6181,0 -52.1229,-16.8765 -52.1229,-25.4937 0,-2.6296 17.3842,-20.1227 19.9875,-20.1127 1.0683,0 5.4949,2.3892 9.837,5.3001 10.9638,7.3499 23.6917,10.6959 40.869,10.7438 18.84,0.052 28.5068,-2.6203 35.7792,-9.8928 5.0325,-5.0325 5.8077,-6.984 5.8077,-14.6204 0,-6.8736 -0.9787,-9.976 -4.4481,-14.099 -5.0897,-6.0488 -11.5285,-7.7056 -41.971,-10.7996 -31.2106,-3.1721 -46.2052,-10.3383 -55.335,-26.4454 -3.7841,-6.6761 -4.3842,-9.9044 -4.3733,-23.5273 0.01,-12.961 0.7147,-17.1073 3.9326,-23.1468 7.5253,-14.1239 24.4792,-26.7395 40.3457,-30.0217 l 6.5861,-1.3624 0.5188,-11.7695 0.5187,-11.7695 h 15.7093 15.7093 v 11.1047 11.1047 l 13.6591,2.9352 c 14.6231,3.1423 33.7092,13.3831 33.7092,18.0868 0,2.8343 -16.7036,19.9263 -19.4735,19.9263 -0.9326,0 -5.8142,-2.1009 -10.8479,-4.6687 -7.6044,-3.8791 -12.1509,-4.8062 -26.8838,-5.482 -20.6224,-0.9458 -28.3925,0.9828 -34.8424,8.648 -3.5397,4.2066 -4.4434,7.1841 -4.4434,14.6392 0,8.2279 0.6308,9.8893 5.2211,13.7518 6.1499,5.1748 7.8855,5.586 38.0288,9.009 34.5316,3.9214 50.1364,11.2937 58.9889,27.8687 5.6701,10.6165 5.65,37.3259 -0.036,47.977 -8.1242,15.2179 -23.6978,26.0839 -43.8694,30.6086 l -9.2105,2.066 v 13.7559 13.7558 h -15.7894 -15.7895 z"
               id="path27201"
               transform="matrix(0.26458333,0,0,0.26458333,162.66941,40.066942)" />
          </g>
          <path
             style="fill:#c6c6c6;fill-opacity:1;stroke:#c6c6c6;stroke-width:0.8;stroke-dasharray:none;stroke-opacity:1"
             d="m -1086.2987,541.59454 -0.1355,-3.56764 -3.3971,-0.57108 c -1.8685,-0.31409 -4.4795,-1.10331 -5.8023,-1.75379 -2.9217,-1.43679 -5.8865,-3.82484 -5.8865,-4.74149 0,-0.97526 3.6621,-4.79915 4.8916,-5.10773 0.7222,-0.18127 1.6615,0.18375 3.0373,1.18039 2.6923,1.95027 6.1266,2.86739 10.7862,2.88038 4.7587,0.0132 7.3902,-0.72715 9.4336,-2.65424 1.3649,-1.28733 1.5588,-1.75882 1.5588,-3.78976 0,-2.59165 -1.1463,-4.51856 -3.1389,-5.27617 -0.6383,-0.24262 -4.0051,-0.75591 -7.482,-1.14061 -9.5598,-1.05778 -12.1884,-1.98787 -15.0429,-5.32273 -2.4761,-2.89275 -3.3471,-7.90745 -2.133,-12.28066 1.2192,-4.39148 5.6289,-8.40828 10.6222,-9.67558 l 2.553,-0.64796 0.1372,-3.0819 0.1373,-3.08189 h 4.1564 4.1564 v 2.97635 2.97638 l 1.9728,0.30485 c 4.6419,0.71729 10.5601,3.58389 10.5601,5.11498 0,0.88048 -3.4935,4.74136 -4.6111,5.09609 -0.4467,0.14176 -2.0463,-0.3115 -3.5546,-1.00719 -2.2273,-1.0273 -3.5837,-1.30019 -7.2197,-1.45254 -5.2223,-0.21881 -7.2939,0.31335 -8.9689,2.30397 -1.6373,1.94579 -1.6845,5.79204 -0.09,7.29046 1.421,1.33495 2.8466,1.71111 8.9379,2.35831 9.2186,0.97948 12.7552,2.24369 15.6114,5.58048 1.995,2.33072 2.6796,4.55473 2.6796,8.70519 0,2.68192 -0.2436,3.72462 -1.4195,6.07793 -2.0787,4.15975 -5.1226,6.3971 -10.8813,7.99793 l -2.7851,0.77422 -0.1356,3.55135 -0.1355,3.55134 h -4.1386 -4.1386 z"
             id="path27205" />
          <g
             id="g27209"
             transform="translate(-1107.0066,318.79687)"
             style="fill:#ffffff;fill-opacity:1">
            <path
               style="fill:#ffffff;fill-opacity:1;stroke-width:0.0961695"
               d="m 19.247372,229.70737 c 0,-3.38994 -0.02621,-4.3173 -0.121854,-4.31803 -0.859872,-0.007 -4.580467,-0.53881 -6.360291,-0.91008 -2.488045,-0.519 -3.6168195,-0.89644 -5.4099115,-1.80897 -2.484337,-1.26432 -6.85540899,-4.31116 -7.28632199,-5.07892 -0.272573,-0.48565 -0.284688,-1.10022 -0.03099,-1.57444 0.232569,-0.43479 5.78522399,-5.82645 6.21589499,-6.03568 0.354063,-0.172 0.96472,-0.19745 1.346635,-0.0562 0.141833,0.0525 0.726967,0.45489 1.300294,0.89423 2.1891195,1.6775 4.1969455,2.83796 5.8232605,3.36567 1.084364,0.35186 3.859836,0.90464 5.595545,1.11445 1.8789,0.22713 5.872831,0.22772 7.456895,7.3e-4 3.789706,-0.54214 6.71702,-1.80441 8.150116,-3.51437 1.059583,-1.26428 1.488968,-2.56033 1.481199,-4.47087 -0.0086,-2.10677 -0.487327,-3.34475 -1.781219,-4.60593 -0.843586,-0.82228 -1.610014,-1.24898 -3.025039,-1.68415 -1.434374,-0.44115 -2.374452,-0.56173 -8.285444,-1.06273 -3.029064,-0.25673 -5.989891,-0.53592 -6.579621,-0.62041 -6.455373,-0.92491 -11.2777865,-3.38606 -13.6485965,-6.96567 -1.426884,-2.15439 -2.178179,-4.76837 -2.346682,-8.16478 -0.247577,-4.99024 1.409299,-9.29587 4.876941,-12.6734 1.409717,-1.37308 2.201955,-1.97889 3.8302525,-2.92891 2.076275,-1.21138 4.510336,-2.09759 7.219856,-2.62864 l 1.579108,-0.30949 v -3.77583 -3.77598 h 5.361169 5.36117 v 3.69857 3.69857 l 0.219322,0.0427 c 0.120628,0.0234 0.811491,0.11212 1.535242,0.19703 1.529464,0.17942 4.260204,0.69955 5.471826,1.04224 2.242135,0.63414 4.991356,2.05416 7.568132,3.90905 0.994856,0.71615 1.241545,1.25792 0.986257,2.16595 -0.0888,0.31587 -0.582637,0.845 -2.944122,3.15454 -3.054359,2.98719 -3.277162,3.15377 -4.033589,3.01564 -0.202441,-0.037 -0.8294,-0.35001 -1.39324,-0.69563 -1.346018,-0.82509 -3.009208,-1.64378 -3.962893,-1.9507 -3.416881,-1.09962 -8.959168,-1.54602 -12.495282,-1.00643 -4.309819,0.65765 -6.984181,2.96844 -7.428054,6.41821 -0.248165,1.92877 0.274871,3.8799 1.361379,5.07846 0.79743,0.87967 2.304116,1.66273 3.978915,2.06794 1.282121,0.31019 2.477553,0.45808 6.116106,0.75664 5.134622,0.4213 6.575399,0.56014 8.040569,0.77488 5.267534,0.77196 9.291343,2.45253 12.038237,5.02785 2.959542,2.77469 4.338896,6.40275 4.338896,11.41246 0,4.77039 -1.513405,8.61126 -4.663852,11.83643 -3.27789,3.35563 -7.778453,5.4351 -13.637244,6.3011 l -1.096605,0.16208 v 4.39882 4.39883 h -5.36117 -5.361169 z"
               id="path27207" />
          </g>
        </g>
        <path
           style="fill:#18181b;fill-opacity:1;stroke-width:0.708875"
           d="m -405.37287,541.79597 c -0.63569,-1.15047 -11.12792,-42.95086 -11.12792,-44.33295 0,-1.74121 1.30495,-2.28237 6.75014,-2.79931 l 4.40421,-0.4181 2.87307,12.65502 c 1.5802,6.96026 2.95068,12.74989 3.0455,12.86584 0.0948,0.11596 1.22248,-1.76085 2.50589,-4.17069 l 2.33348,-4.3815 -1.05611,-5.79965 c -0.90689,-4.98022 -0.92214,-5.89227 -0.10798,-6.45508 1.55036,-1.07174 8.85186,-1.7874 9.33396,-0.91488 0.23513,0.42552 1.14553,4.59615 2.02314,9.26807 0.8776,4.67192 1.78895,8.74097 2.02522,9.04235 0.23628,0.30138 1.63518,-3.91572 3.1087,-9.37131 2.96184,-10.96599 2.73818,-10.69101 9.92116,-12.19825 2.09564,-0.43973 2.43928,-0.31529 2.43928,0.88333 0,1.45647 -11.71927,41.25522 -12.57833,42.71613 -0.70245,1.19458 -6.12909,4.16662 -6.78275,3.71477 -0.30123,-0.20823 -1.56344,-4.60676 -2.80491,-9.77451 -1.24149,-5.16776 -2.43074,-9.39592 -2.64279,-9.39592 -0.21205,0 -1.72948,3.078 -3.37206,6.84003 -2.07326,4.74841 -3.88645,7.72869 -5.92951,9.74616 -3.01977,2.98193 -3.75994,3.36895 -4.36139,2.28045 z m -146.28076,-0.90508 c -2.0861,-0.71226 -2.1077,-0.77136 -2.3975,-6.52877 -0.1609,-3.1955 -0.2365,-5.90292 -0.168,-6.01648 0.068,-0.11356 1.6888,0.7013 3.6007,1.8108 2.9553,1.71493 3.8485,1.91443 5.9596,1.33104 1.9528,-0.53968 2.5224,-1.08655 2.6663,-2.56051 0.1499,-1.53455 -0.7135,-2.67222 -4.7632,-6.27661 -5.5182,-4.91126 -6.7676,-6.86339 -7.409,-11.57556 -0.8591,-6.31303 1.777,-11.43424 7.6324,-14.82678 3.2895,-1.90589 12.3943,-1.96887 14.9416,-0.10335 1.70541,1.24899 1.81503,1.66783 1.81503,6.93477 0,5.64022 -0.44153,6.59589 -2.04743,4.43152 -2.1947,-2.95781 -8.1093,-4.40881 -9.8833,-2.42459 -1.5544,1.73857 -0.8889,4.20279 1.7092,6.32873 6.9245,5.6662 8.0336,6.67763 9.1693,8.36163 4.33023,6.42118 1.44063,15.95981 -6.0754,20.05484 -2.9517,1.60824 -11.3717,2.21293 -14.7503,1.05932 z m 34.22578,-0.24083 c -2.67189,-1.35509 -5.92097,-5.7946 -6.89092,-9.41571 -2.49662,-9.3206 1.6387,-21.35843 8.42956,-24.53827 3.0772,-1.44092 7.52001,-1.24795 10.3517,0.44964 2.32285,1.3925 2.44923,1.39747 2.75072,0.10797 0.24338,-1.04102 1.27658,-1.47318 4.49606,-1.88058 2.29901,-0.29095 4.3164,-0.37645 4.48306,-0.19003 0.16667,0.18643 -0.35044,6.82376 -1.14912,14.74963 -1.05893,10.50846 -1.26309,14.87482 -0.75395,16.12469 0.65192,1.60042 0.43176,1.84325 -3.32225,3.66428 -2.21124,1.07264 -4.15883,1.95025 -4.32797,1.95025 -0.16917,0 -0.60198,-0.86617 -0.96183,-1.92482 l -0.65427,-1.92483 -2.09584,1.66923 c -2.56783,2.04516 -7.51532,2.5987 -10.35495,1.15855 z m 10.32145,-8.53685 c 0.96773,-0.92723 1.57921,-2.89313 2.08505,-6.70353 1.17088,-8.81992 1.03494,-9.89967 -1.39009,-11.04016 -1.15821,-0.54472 -2.67554,-0.82375 -3.37183,-0.62008 -2.88874,0.84495 -4.9422,7.2273 -4.21862,13.11188 0.71866,5.84456 3.81533,8.20312 6.89549,5.25189 z m 17.20702,7.49705 c 0.16343,-1.13393 0.78956,-9.48377 1.39142,-18.55519 0.60186,-9.07142 1.29007,-18.65385 1.52934,-21.29427 l 0.43506,-4.80077 5.5297,-1.23305 5.52969,-1.23305 v 1.71244 c 0,4.24391 -3.48265,43.38906 -3.89493,43.77909 -0.87106,0.82408 -8.28878,3.68647 -9.55327,3.68647 -1.00424,0 -1.20305,-0.42385 -0.96701,-2.06167 z m 25.80972,0.49927 c -6.54358,-3.31817 -8.95754,-7.9199 -8.61217,-16.41738 0.19628,-4.82922 0.55975,-6.34317 2.26238,-9.42345 2.98812,-5.40594 7.26548,-8.11905 13.32231,-8.45031 4.11918,-0.22528 5.0696,-0.0231 7.08712,1.50845 3.49237,2.65099 5.37807,6.2297 5.37807,10.20665 0,2.94002 -0.33243,3.73261 -2.55946,6.1022 -2.93658,3.1246 -6.50161,4.54157 -11.42632,4.54157 -3.75637,0 -4.43039,1.01534 -2.18373,3.28952 2.44061,2.47049 7.68808,2.18066 13.99115,-0.77277 0.61171,-0.28663 0.83782,0.72899 0.83782,3.76314 v 4.15573 l -4.42732,1.52953 c -5.58332,1.9289 -9.82124,1.9187 -13.66985,-0.0329 z m 8.54589,-20.96259 c 4.07625,-1.97647 3.54531,-5.21408 -0.85504,-5.21408 -2.334,0 -4.48914,2.10033 -5.63939,5.49592 -0.71386,2.10733 -0.70358,2.11864 1.46345,1.61082 1.2003,-0.28128 3.46424,-1.13297 5.03098,-1.89266 z m 16.92421,21.60674 c -1.44351,-0.85549 -1.70351,-1.58772 -1.87667,-5.28534 -0.21254,-4.53811 0.0678,-4.99873 1.90833,-3.13567 2.69294,2.72592 8.69685,1.71333 7.66551,-1.29283 -0.23043,-0.67168 -2.07964,-2.45453 -4.10936,-3.96192 -7.54141,-5.60067 -7.48626,-14.78419 0.11847,-19.72393 2.17708,-1.41415 3.42491,-1.68244 6.85876,-1.47471 5.05147,0.3056 5.88638,1.12723 6.46979,6.36677 0.4945,4.44109 0.0439,4.80148 -2.92922,2.34281 -2.23023,-1.84429 -5.08712,-2.06817 -6.48203,-0.50795 -1.48224,1.65792 -0.5557,3.16729 4.45387,7.2556 3.54827,2.89574 4.74308,4.35597 5.25239,6.41915 1.20411,4.87784 -0.85833,9.49312 -5.42178,12.13267 -2.85088,1.64897 -9.74097,2.14968 -11.90806,0.86535 z m 78.98404,-1.24582 c -9.29478,-6.5932 -7.97909,-26.56061 2.13024,-32.32925 3.4064,-1.94378 8.35014,-1.95495 11.17959,-0.0252 2.0659,1.40894 2.15723,1.4119 2.5346,0.082 0.30506,-1.0751 1.36005,-1.49562 4.77981,-1.90525 2.41358,-0.28911 4.47247,-0.41162 4.57528,-0.27224 0.10283,0.13937 -0.48194,6.83207 -1.29948,14.87266 -0.99425,9.77857 -1.27498,15.0803 -0.84783,16.0117 0.78252,1.70631 0.44714,2.04751 -4.10191,4.17289 -3.67396,1.71653 -4.72764,1.43866 -4.75713,-1.25456 -0.014,-1.2845 -0.2627,-1.2091 -3.09024,0.93713 -3.43749,2.60922 -7.1527,2.51223 -11.10293,-0.28982 z m 12.03881,-7.43298 c 0.84042,-0.94004 1.46991,-3.59595 2.07172,-8.74109 0.81372,-6.95671 0.79202,-7.4388 -0.36941,-8.20843 -3.85459,-2.55425 -6.83121,-1.20136 -8.29857,3.77176 -1.10911,3.7589 -0.54018,11.08516 1.00957,13.00056 1.52831,1.88893 3.98662,1.9669 5.58669,0.1772 z m 16.89266,6.78567 c 8e-4,-1.54627 0.43985,-8.20927 0.97411,-14.80666 0.53427,-6.59741 1.17954,-15.79637 1.43393,-20.44216 0.42534,-7.76767 0.57607,-8.475 1.87452,-8.79678 0.77659,-0.19244 3.37073,-0.83534 5.76478,-1.42863 2.39403,-0.59328 4.38459,-1.02052 4.42345,-0.94937 0.33547,0.61407 -3.75317,45.02784 -4.18587,45.4699 -0.78702,0.80405 -8.10676,3.76508 -9.30739,3.76508 -0.68638,0 -0.97943,-0.84283 -0.97753,-2.81138 z m 23.81153,1.14452 c -4.86029,-3.15886 -7.50658,-9.66154 -6.84989,-16.83204 0.40746,-4.44926 2.53199,-10.28382 4.68445,-12.86488 3.76658,-4.51659 10.82352,-6.0121 14.98301,-3.1752 2.00461,1.3672 2.12919,1.37259 2.4255,0.10517 0.23904,-1.02242 1.2936,-1.46023 4.49241,-1.86501 2.29903,-0.29095 4.33812,-0.35217 4.53132,-0.13606 0.19321,0.2161 -0.28825,7.03757 -1.06992,15.15882 -1.07756,11.19551 -1.23503,15.01685 -0.65122,15.80366 0.96954,1.30669 0.45553,1.80721 -3.98556,3.8809 -3.78321,1.76649 -4.83947,1.6133 -4.83947,-0.70185 0,-1.83802 -0.28064,-1.82226 -2.66521,0.14968 -2.92549,2.41925 -7.74679,2.62718 -11.05542,0.47681 z m 10.6729,-7.44992 c 0.93895,-0.47853 1.71781,-1.06891 1.73078,-1.31199 0.013,-0.24306 0.43267,-3.64692 0.93264,-7.56413 0.97987,-7.67712 0.81111,-8.422 -2.17157,-9.58501 -4.26225,-1.66193 -6.82785,2.31521 -6.82785,10.58438 0,3.71684 0.3126,5.24056 1.38918,6.77142 1.54061,2.19069 2.42802,2.38897 4.94682,1.10533 z"
           id="path27213"
           inkscape:export-filename="SALESWALA/saleswala.png"
           inkscape:export-xdpi="108.691"
           inkscape:export-ydpi="108.691" />
      </g>
    </g>
  </g>
</svg>
